<?xml version="1.0" encoding="UTF-8" standalone="no"?>
<!-- Created with Inkscape (http://www.inkscape.org/) -->

<svg
   width="101.55859mm"
   height="101.64259mm"
   viewBox="0 0 101.55859 101.64259"
   version="1.1"
   id="svg5"
   inkscape:version="1.1.1 (3bf5ae0d25, 2021-09-20)"
   sodipodi:docname="logo.svg"
   xmlns:inkscape="http://www.inkscape.org/namespaces/inkscape"
   xmlns:sodipodi="http://sodipodi.sourceforge.net/DTD/sodipodi-0.dtd"
   xmlns="http://www.w3.org/2000/svg"
   xmlns:svg="http://www.w3.org/2000/svg"
   xmlns:rdf="http://www.w3.org/1999/02/22-rdf-syntax-ns#"
   xmlns:cc="http://creativecommons.org/ns#"
   xmlns:dc="http://purl.org/dc/elements/1.1/">
  <title
     id="title21137">logo</title>
  <sodipodi:namedview
     id="namedview7"
     pagecolor="#ffffff"
     bordercolor="#666666"
     borderopacity="1.0"
     inkscape:pageshadow="2"
     inkscape:pageopacity="0.0"
     inkscape:pagecheckerboard="0"
     inkscape:document-units="mm"
     showgrid="false"
     inkscape:zoom="1.4142136"
     inkscape:cx="211.07137"
     inkscape:cy="177.83735"
     inkscape:window-width="1920"
     inkscape:window-height="1017"
     inkscape:window-x="-8"
     inkscape:window-y="-8"
     inkscape:window-maximized="1"
     inkscape:current-layer="layer1"
     showguides="false"
     inkscape:guide-bbox="true"
     fit-margin-top="0"
     fit-margin-left="0"
     fit-margin-right="0"
     fit-margin-bottom="0">
    <inkscape:grid
       type="xygrid"
       id="grid28426"
       originx="-0.16272769"
       originy="-0.1217121" />
    <sodipodi:guide
       position="52.753935,70.014312"
       orientation="1,0"
       id="guide28430" />
    <sodipodi:guide
       position="-79.537723,48.847643"
       orientation="0,-1"
       id="guide28432" />
  </sodipodi:namedview>
  <defs
     id="defs2">
    <linearGradient
       id="linearGradient115180"
       inkscape:swatch="solid">
      <stop
         style="stop-color:#000000;stop-opacity:1;"
         offset="0"
         id="stop115178" />
    </linearGradient>
    <linearGradient
       id="linearGradient23951"
       inkscape:swatch="solid">
      <stop
         style="stop-color:#d45500;stop-opacity:1;"
         offset="0"
         id="stop23949" />
    </linearGradient>
  </defs>
  <g
     inkscape:label="Layer 1"
     inkscape:groupmode="layer"
     id="layer1"
     transform="translate(-0.1627277,-0.1217121)">
    <g
       id="g144626"
       transform="translate(-2.0579754,-2.0579754)">
      <path
         id="rect31"
         style="opacity:1;fill:#333333;fill-rule:evenodd;stroke-width:0.198318"
         d="M 68.535156,61.806641 C 60.433594,64.05599 52.332032,66.305338 44.23047,68.554687 41.973308,60.427083 39.716146,52.299479 37.458984,44.171875 c 8.101563,-2.249349 16.203126,-4.498698 24.304688,-6.748047 2.257161,8.127604 4.514323,16.255209 6.771484,24.382813 z"
         sodipodi:nodetypes="ccccc" />
      <g
         id="rect31-6-0-0-1-1">
        <path
           style="color:#000000;fill:#f8991d;fill-rule:evenodd;stroke-width:3.14;-inkscape-stroke:none"
           d="M 79.90625,29.126953 C 65.477214,33.133463 51.048177,37.139974 36.619141,41.146484 34.979167,35.243489 33.339193,29.340495 31.699219,23.4375 38.785823,16.351562 45.872427,9.265625 52.959031,2.1796875 61.941437,11.162109 70.923844,20.144531 79.90625,29.126953 Z M 76.832031,79.949219 C 72.81901,65.499349 68.80599,51.049479 64.792969,36.599609 70.68099,34.958984 76.56901,33.318359 82.457031,31.677734 89.564454,38.785156 96.671877,45.892578 103.7793,53 94.796877,61.983073 85.814454,70.966146 76.832031,79.949219 Z M 26.027344,76.890625 C 40.471354,72.872396 54.915365,68.854166 69.359375,64.835937 71,70.723958 72.640625,76.611979 74.28125,82.5 67.173828,89.607423 60.066406,96.714847 52.958984,103.82227 43.981771,94.845055 35.004557,85.86784 26.027344,76.890625 Z m 3.078125,-50.775391 c 4.033203,14.427083 8.066406,28.854167 12.099609,43.28125 C 35.311849,71.032552 29.41862,72.668619 23.525391,74.304687 16.423828,67.203125 9.3222657,60.101562 2.2207031,53 11.182292,44.038411 20.14388,35.076823 29.105469,26.115234 Z"
           id="path141868"
           sodipodi:nodetypes="cccccccccccccccccccc" />
      </g>
    </g>
    <text
       xml:space="preserve"
       style="font-style:normal;font-weight:normal;font-size:10.5833px;line-height:1.25;font-family:sans-serif;fill:#000000;fill-opacity:1;stroke:none;stroke-width:0.264583"
       x="27.486778"
       y="34.26923"
       id="text59459"><tspan
         sodipodi:role="line"
         id="tspan59457"
         style="stroke-width:0.264583"
         x="27.486778"
         y="34.26923"></tspan></text>
  </g>
  <metadata
     id="metadata21135">
    <rdf:RDF>
      <cc:Work
         rdf:about="">
        <dc:title>logo</dc:title>
      </cc:Work>
    </rdf:RDF>
  </metadata>
</svg>
